/* XPM */
static char *c64eca0aaaae43d0ba0a95d9415f625fUtfWMaisuA1tjgj4[] = {
/* columns rows colors chars-per-pixel */
"64 64 256 2 ",
"   c #040302",
".  c #0B0402",
"X  c #040904",
"o  c #0C0A05",
"O  c #040509",
"+  c #0B060B",
"@  c #050A0A",
"#  c #0C0B0C",
"$  c #130302",
"%  c #1B0301",
"&  c #140A05",
"*  c #1A0B05",
"=  c #12060A",
"-  c #130C0C",
";  c #1B0C0B",
":  c #1A060B",
">  c #0D110C",
",  c #091206",
"<  c #14110D",
"1  c #1C120D",
"2  c #181406",
"3  c #0D0D12",
"4  c #0C0C18",
"5  c #120D13",
"6  c #1B0D13",
"7  c #150F19",
"8  c #0D1213",
"9  c #0E1417",
"0  c #141214",
"q  c #1B1413",
"w  c #1C1A15",
"e  c #14141A",
"r  c #1B151B",
"t  c #15191D",
"y  c #1B1A1C",
"u  c #151B14",
"i  c #250A05",
"p  c #24130C",
"a  c #2B140B",
"s  c #2B1B0E",
"d  c #251608",
"f  c #33150B",
"g  c #37180D",
"h  c #231513",
"j  c #2C1512",
"k  c #231914",
"l  c #2C1B14",
"z  c #21151A",
"x  c #231C1B",
"c  c #2B1D1B",
"v  c #331C14",
"b  c #3B1D14",
"n  c #331E19",
"m  c #3B1D1A",
"M  c #331711",
"N  c #2B0C0C",
"B  c #1D2117",
"V  c #2C211B",
"C  c #272419",
"Z  c #342216",
"A  c #34231D",
"S  c #3B241C",
"D  c #382719",
"F  c #34230F",
"G  c #151322",
"H  c #1D1B22",
"J  c #181823",
"K  c #241E23",
"L  c #2B1E21",
"P  c #252124",
"I  c #2C2422",
"U  c #2C252A",
"Y  c #292926",
"T  c #322524",
"R  c #3C2522",
"E  c #342A25",
"W  c #3B2B24",
"Q  c #352B2B",
"!  c #3A2D2B",
"~  c #35262A",
"^  c #3D322D",
"/  c #363528",
"(  c #352C33",
")  c #382E35",
"_  c #3D3232",
"`  c #3B333B",
"'  c #383539",
"]  c #2D2F30",
"[  c #1F2525",
"{  c #490000",
"}  c #411D13",
"|  c #411E18",
" . c #4A140D",
".. c #43251C",
"X. c #46261A",
"o. c #522E1E",
"O. c #4C2C24",
"+. c #442925",
"@. c #532D27",
"#. c #43332C",
"$. c #473527",
"%. c #56352A",
"&. c #492E30",
"*. c #433633",
"=. c #453A35",
"-. c #493B34",
";. c #443B3A",
":. c #4B3D3B",
">. c #4A3436",
",. c #583A36",
"<. c #5A2D32",
"1. c #663929",
"2. c #7C3A28",
"3. c #71322F",
"4. c #6C251C",
"5. c #4D413C",
"6. c #474539",
"7. c #52443D",
"8. c #574739",
"9. c #594A32",
"0. c #674538",
"q. c #794936",
"w. c #68533E",
"e. c #3D3844",
"r. c #433B44",
"t. c #473E48",
"y. c #573E41",
"u. c #623A42",
"i. c #4E4342",
"p. c #4B444D",
"a. c #48454C",
"s. c #524443",
"d. c #584948",
"f. c #5A5448",
"g. c #4E4857",
"h. c #564C55",
"j. c #5B5458",
"k. c #4F5052",
"l. c #664A48",
"z. c #675749",
"x. c #77574A",
"c. c #675A55",
"v. c #745956",
"b. c #744B4A",
"n. c #6A6459",
"m. c #766559",
"M. c #756851",
"N. c #5E5664",
"B. c #765E61",
"V. c #776A67",
"C. c #7C7369",
"Z. c #736C6F",
"A. c #5E6253",
"S. c #893833",
"D. c #874A37",
"F. c #92503B",
"G. c #A44B39",
"H. c #873742",
"J. c #975948",
"K. c #9B5B53",
"L. c #924E4B",
"P. c #A55B48",
"I. c #A55854",
"U. c #AC5850",
"Y. c #87685A",
"T. c #976657",
"R. c #966550",
"E. c #A76A5B",
"W. c #B66959",
"Q. c #B26D56",
"!. c #845D65",
"~. c #876869",
"^. c #996A63",
"/. c #87796A",
"(. c #9B7669",
"). c #847A74",
"_. c #887A77",
"`. c #967578",
"'. c #906E74",
"]. c #A66A63",
"[. c #B86D65",
"{. c #A87466",
"}. c #B87667",
"|. c #A67B75",
" X c #BC7874",
".X c #C1755E",
"XX c #C67968",
"oX c #CB7D73",
"OX c #CD776E",
"+X c #97816B",
"@X c #8D8378",
"#X c #95877A",
"$X c #9E937F",
"%X c #AA8679",
"&X c #B78677",
"*X c #AE8E77",
"=X c #C8816C",
"-X c #D8846E",
";X c #C88576",
":X c #D68A78",
">X c #D8937D",
",X c #E7947F",
"<X c #E08E78",
"1X c #7E7683",
"2X c #937C82",
"3X c #CC7683",
"4X c #978985",
"5X c #9C9285",
"6X c #958D8E",
"7X c #A38989",
"8X c #B78B86",
"9X c #A69689",
"0X c #B79586",
"qX c #A79995",
"wX c #B59C99",
"eX c #AB8E94",
"rX c #BAA58C",
"tX c #ACA396",
"yX c #BBAC9C",
"uX c #B7A797",
"iX c #B5A993",
"pX c #AA9DA6",
"aX c #B8A8A6",
"sX c #B4ABAB",
"dX c #9E95A6",
"fX c #C78C83",
"gX c #D98E86",
"hX c #C89589",
"jX c #D89687",
"kX c #C39B97",
"lX c #D49E93",
"zX c #E89A88",
"xX c #E99B8D",
"cX c #C6AA9A",
"vX c #C7B39B",
"bX c #D1A493",
"nX c #F5A48A",
"mX c #EAA596",
"MX c #F6A897",
"NX c #F2AB94",
"BX c #C7ACA6",
"VX c #C9B8A8",
"CX c #D5B8A9",
"ZX c #CCBBB4",
"AX c #C8B5B5",
"SX c #D3B1AE",
"DX c #F9B4A3",
"FX c #EDAEA4",
"GX c #D5C5B9",
"HX c #D0C3AC",
"JX c #FFC4B1",
"KX c #D7C7C5",
"LX c #DBD2CF",
"PX c #E5CFCD",
"IX c #F4E4E1",
"UX c #F9E2DA",
/* pixels */
"6X4X`.'.eX~.V.IXGXBX|.<.<.v.5X5.x.x.T.(.|.hXcXcX9X2 2 u X @ 0 q - $ & 1 c A c l l l =.6.6./ Y , n.).@Xf.E C E C ^ 6.c.n.f.f.7.A ",
"pX_.~.!.eXv.v.LXKXAX`.,.<.b.4Xd.v.Y.(.|.0XSXcXBXBXE X , X o # # . . . * j l l k p 1 ^ 6./ / C / C.@Xf.A C C ^ n.).@X5XqX5X5X#X/.",
"sXAX2X'.~.7X).IXKXZX`.v.<.,._.c.c.V.`.7XSXGXBXaXsX6.  , X o o   . . . & : * * * & & ^ 6./ / C A.@Xf.A k A f./.5X5X#X#X#X#X5X9X9X",
"qX6Xd.~.`.eXs.LXKXKX`.!.u.,._.c.c.Z.Z.eXAXaXqX4XpXj.X > o   . . o . . $ $ $ $ & & 1 *.5./ / =.V.c.C 2 / c.#X5Xm.f.8.-.7.7.8.z.m.",
"KXaXV.v.wX_.Q LXKXKX`.~.b.l._.c.t.g.N.pXsX6XpXC.sXZ., o X   . & o   o o . . & & & c E E Y C f.n.A s k f.#X/.8.W s d a Z ..Z g b ",
"ZXAX_.l.eX_.L KXaXKXwX`.v.y._.V.e.g.Z.sXdX1XsX6X6Xj.o X > o . .       . o . . & q k < $ & & f.6.1 d 7._./.7.D Z a a f D O.X.f f ",
"V.c.*.l.4XqXk AXaXPXPXwX~.,._._.` e.g.Z.g.e.j.a.k.] # X 0 o .     X   # - - - q k & . & . 1 6.C k C m.@X5.s D D b D g b O.X.} } ",
"m ,.l.A -.n.E GXKXUXUXSXeXv.#X4Xr.e.t.r.e.t.e.e.' y 0   #   . # @ O + e P U Q _ c . q / w ^ ^ 2 k 7.V.z.Z d a a f b g b @.@.} } ",
"f 0.m.. & F z.M.m.m.M.0.l.8.8.,.l.h.6 U U K r e # # @ # # # # # e e y H H P U U c - x Q I E E < T V.c.W s d i a X.g } } %.0.@.} ",
"} %.Y.Z $.$.+XD D X.$.$.9.w.z.8.v.'.% ; h . o o # # 3 0 e t t t e t t y y H K K P q x I C I I < s.V.s.l Z S ..X.X.} X.X.,.b.,.O.",
"i q.M.+XHXrXrXrXvXvXHXVXCXCXVX9X~.0Xa a A & - o # 5 0 e e t J J e t t t t e r y y r r y K P P x d.j.E 1 A +.%.%.@.X.O.X.%.0.,.%.",
"{.T.Y.rXHXrX+XCXcX0XvXyXvXvXvX+X|.0Xd a D 2 o X # 5 0 e e e 9 e 8 8 e e e e e r e y 0 0 K K y K U _ k 1 n S O.%.O...b N f | m m ",
"hX{.{.rXGXvXvXcXCXvXVXyXiXiXrX(.cX+Xi d w , o o 0 r r r e e 9 9 3 8 0 e e e t t y P t e K r 5 r 0 K z c A n ..O.%.@.O.b b ..m +.",
"J.{.T.0X+XM.*X%Xq.0.w.9.w.w.x.9.cX/.2 s C u > 8 e r r r r e e e 0 0 e e e 0 e e e H t e H J 7 r r x q c T v m m X...X.S m S m S ",
"I.K.R.rX9.$.*X0X0.0.z.w.z.z.x.x.wX#X2 B Y u , 8 e 0 7 7 e e e e 0 0 e e e 0 0 0 3 t t e J G G J H y 5 h c j v f ..b X...+.+.R +.",
"[. X].*XCXuXcXCXwXrXyXyXVXyXBXCXBXyX2 2 Y , 8 t e 0 5 5 e e e e 3 0 e e e e e e e G G G e e e r r r 7 w k h l a b f b M M S n R ",
"OXS.L.hXkXwXPXZXAX9XAXGXaX#XyXBXyXyX2 k Y > u 9 t t 9 3 3 t t 3 3 5 0 e 4 4 4 G G J J e 5 5 7 q 7 e e q w h k j v M f a M m n j ",
"3XH.3.8XkX7XZXAXsXtXaXaXaX4X7XqX9XtXl k w 0 u 8 @ 9 J 9 @ 3 e e e e e e e e G G G G G e e q - + 5 5 e q q w k k v m ....+.%.,.,.",
" XK.L.|.BX_.4X4X4X4X_.V.wX4XV.m.#X9XV V w C e 9 P 3 O 8 J 0 + +   o # 8 e e 9 4 O @ 3 8 e u 0 3 5 5 5 0 0 q w k a v m v M v S W ",
"FXSX8X8XZX_.).C.V.C.C.V.aXqX_.).4XqXk V I C > e e 3 # 3 +   . - < 0 q q y x K y H y e # O @ # e 5 5 5 0 0 0 q q h l n v a a a j ",
"SXCX0X`.ZX)._.@X_._._.).qX_.).).4XaXc k I e 3 e O 0 0 + . ; 6 : & * * $ $ & i 1 h w k x y 0 # @ 5 5 3 # # > < q ; p n S R R W W ",
"CXVX9X#XKX_.4XqX4X_.2X4XaX4X_.Z.4XuX! w y 0 e e t +   . : % % % M +.,.,.%.%.@.X.b j p j x x 5 + 5 3 3 # # # < < : ; h n W W E E ",
"VXBX9X/.GXC.@X).C.B.V.C.sXqX6X).qXV.E z 0 0 e 3 +     $ $ % +.x.|.8XbXbXbXlXfX&X{.Y.,...j i 6 6 + + # # # # < - 1 1 h l l l k k ",
"yXuX9XC.GXqXZXaXqXwXeX_.aXqX6XqXtXV q z 5 0 + O   - & . v m.kXCXFXFXFXmXmXmXxXjXgXfXfX|.b.+.N 6 + + + # # # > < . & & ; ; * * 1 ",
"vXC.$XC.VXn.z.d.l.&.B.l.T *.E ;.s.- q 0 - 5 + # .   . i ~.kX%XlXmXFXmXMXxXMXmXgX;X X].hX8X~.m % 6 . +   0 # 0 0 - : & & * * * * ",
"VXz./.M.ZX8.W ,.>.m d.d.>.#._ *.c.$ h & 5 0 @ #   c . l.%X%X].D.J.}.zXxX>XxXW.D.2.D.L.^.^.(.,.i : . - . 0 # # < - & & & * ; p k ",
"VXz.+Xz.GX7.n l.d.R +.R ! A :.5.C.; h o q 0   # . ; i (.hXhX}.E.2.J.>XjX:X;XD.2.J.R.E.|.0X0Xb.i $ $ $ . < o # < q ; ; ; ; p k l ",
"cXm.#X8.GX8.S v.v.&.&.R *.W 5.=.5X^ - & 0 -   o = . v 8XfXK.4.2.J.J.=XxXjXE.D.J.2.1.1.q.&X0XY.f % i $ . - o o - c c l j p p j j ",
"BX/.9X8.GX8.#./.d.W c.c.C.C.V.f.tXV.. 1 o o o . ; $ M %XlXJ.P.P.F.P.}.NXmXJ.D.E.D.q.q.1.{.bX%X} b R % $ - & o & I A n n n v l l ",
"VX~./.8.KX7.=.@Xc.! c.c.n.n.f./ tX9X. < .   o . . v l.8XFXjXXXG.P.XX;XDXFXE.T.E.D.D.J.R.;XbX&X1.%.,.i $ - & & : c c n n v Z Z Z ",
"cXz.$.W GX7.^ V.V.E =.n.n.n.C.f.tXyX2 o . o   . ; l.^.&XmXJXnX<X-XxXxXMXDXoX X X].E.;XxXmX>XQ.q.0.b.N $ & & & q c c v v v v v v ",
"VXz.s Z GXf.*.d.C.^ / C.n.f.n./ 9XyXC   o #   . * 7XT.hXmXNXDXnXmXMXMXxXDXgXXXoXgXfXxXmXzX>X.XD.0.x.N $ $ $ * l A n l a a a a a ",
"VX8.d d ZXc.^ V.).i.! E ! E E ^ qXVXk   ,     $ f (.T.XXNXMXnXDXMXDXzXnXDX,XOX-XgXzXxXgX;X:XQ.2.b.Y.i $ d $ d l l A R R A l l l ",
"yXf.s Z ZXf.#.).).s.E _ T :.! *.9XAX^     , , . $ T.jX;X=XzXnX,XMXmXnXDXnX-X-XOXzXgXgXgXoXXXQ.D.(.0.% i % $ A a l l l l A A S S ",
"yX8.2 s GXz.#.m.).d.d.i.E =.! *.5XtXf., > u w & $ %.lXjX=X:XzXnXMXmXOX.XW.P.U.OX:XoXoX X[.}.E.D.x.M % n l p D a l d * * d l v v ",
"tX8.* 2 VXz.W s.n.s.V.d.^ E ^ =.d.d.=.< w < < 1 l $ 1.{.>X>X:X<XxXMX-XXX=XQ.P.XX-XoXXX[.}.}.R.q.f % $ l #.W d Z S n a i i a g Z ",
"tX/.7.F yXz.5.c.v.s.c.5.*.=.*.^ 1 & c - w < 1 k p % 0.R.&X;X>XxXnXMXMXmX>X=X:XoXoXoXXXW.}.E.q.X.$ p * $ #.-.p Z S S D M i i f ..",
"yXuXm.D qXf.f.n.).v.;.:.*.c.*.V < > I - w h h x k $ M %.T.>X>X-X,XzX-XW.I.K.[.oXXXXXW.Q.E.R.%.a $ ; : & A 7.^ p s Z S v i i g o.",
"iXyXm.d 4X7.5.5.V.C._ i.*.c.! k w w C & = 6 ; ; c . W +.1.&X;XzX-XOXS.4.2.4.4.L.XXXX[.[.E.b.O.W . $ $ ; V 5.:.l l D X.X.X.X.@.0.",
"iXBX/.D 9Xd.5.*.:.V.;.5.*.=.E c y u 0 - 6 6 6 z y . 6.d % {. X:X,XG.{ {  . .4.4.W.W.W.Q.J.@.j ! . - . $ c ! *.#.s v D X.X.o.1.0.",
"iXyXM.s /.m.^ =.=.5.s.5.=.^ T c B t q - : 6 z z 0 < k & % %.hX;X:XG.{ 4.2.3.L.S.U.XXW.F.T.i &.y.. q -   q I T #.A v v X.%.0.0.0.",
"9XyXz.d c._.A *.=.#._ *.! h ; q y y r q 6 6 z z q 0 - . $ f ^.hX:XOXS.S.L.I.L.I.W.W.J.{.1.% &.x - K 5   q c V W W D D X.%.0.0.b.",
"9XVXm.d z.9XV -.;.*._ ^ c & . - q e r q q 6 6 6 0 q . . * $ ,.hX X:XW.L.I.I.S.U.[.K.E.K.i i : = q K 0 o - q q c k l S $.,.0.l.l.",
"5XHX/.a c.@XA *.:.s.i.! k 1 ; - w y z w q - - & 0 0 . : h . j Y.fX;X}.W.I.L.L.I.].K.T.} $ p . 6 0 y 0 + & - & 1 & h A +.&.>.,.d.",
"@XZX/.s C.f.W ! *.7.5.E h 1 1 ; c c x w 0 - + # q - $ : ; $ . l %X&X}.[.U.P.W.I.].^.O.$ p . h q & 0 - & - # o & w c I c c A &.>.",
"/.HX/.$.@XW -.^ ! ! E I 1 . & 1 c c x q # + # - w : $ & : k .   +.%XhX;XoXW.[.[.].,.$ . q & x ; & & - 0 < - & & q x U ~ ~ ! ~ ~ ",
"/.HX@Xz._.W *.! E T c h & . & h h h ; - # # # - h h : : h E o o   z.hXjX>XXX[.E.b.% . # 0 w - & - & - 0 - # - - # 0 P ` h.h.;.~ ",
"C.ZX/.m.m.A A c T ! T 1 $ 1 x k ; ; ; - > > < < x c p p c T   < & $ x.^.E.[.K.1.i . + O y   q   - + & 5 # o - - - 0 x ` c.B.h.( ",
"M.GX$X8.A p V V _ *._ T h h c T L c - & w w < q V k h 1 ; c k   & . a O.O.g i $ $ . o X o o . $ - 5 5 # . o - - o < q P ;.j.r.t.",
"z.VX9X$.S l E *._ t.s.t.! L c T I Q P q - . . x I C c q ; c c . ; . ; *.&.N $ $ .         o : : q q - # o - - o - q q q ' h.e.r.",
"m.GX9XS +.c c ! *.s.c.h.s.*.! E E I 6 . .   o x x x k 1 & c A & : . $ c >.>.j $ .         o - q 6 - + . < w w q w c q - ` p.r.p.",
"m.BXm.Z -.^ E *.i.i.s.s.d.d.:._ E z . . . . - w q q q & & c T & . & . : &.y.T = # o       o - q - . o & q x c x w x q 0 a.r.e.h.",
"m.9XD s #.*.! *.i.:.*.:.s.d.s.:.T c k q - # < w q - - $ & V V . o o . ; c h = r - # # # @ + 5 q - o o - q w w w - - 5 K p.` ` h.",
"Y._.d l A #.E ! *.;.:.:.:.s.s.i.! I c c x C x - o . . . & T T   o # # = : = = 5 - 5 3 + + - q z q - o - < q q q - - e ` g.) r.h.",
"$.$.d j j =.! *._ *.:.:.:.:.s.5.:.E k q x Q Q q # & - . - E T . # # # o + r r + 5 5 5 3 + 5 r K I q o o < q 0 0 - r K a.t.` p.h.",
"$ . j p ; *.E ^ _ _ _ *.:.s.s.:.d.;.I - . I ' U K P L q 1 T T . 0   > y +   5 r 0 0 5 5 + 5 r K ;.I - # < 0 - + 5 K U p.` ` g.g.",
"n l.a $ R W ! ! _ ! ! ^ :.:.7.:.:.5.*.k . - I ` ` ( U c I ! T & o 8 e 0 3 3 3 3 0 5 3 3 3 5 r K U w < 0 # + 0 K r r ` a.` r.p.) ",
"ZXGXV.p n V ! E ! E ! ^ :.:.5.:.*.5.5._ w = 0 K Q Q Q U I ! ! x o # 8 8 # # 3 3 0 5 + + 3 5 5 + I <   # 5 0 y H r U t.t.) ) r.( ",
"wXZX_.p A c ! I E E E _ -.:.:.:.*.=.i.s.' z + + r P ( ( Q _ _ E - # # 8 8 @ @ 0 5 5 r K e + # e u o o 0 e y K H K ` p.r.( ( ) ) ",
"7XPX_.l T h T T T T E _ -.:.:.:.-.*.;.d.h.r.P 5 + 5 K Q _ *.;.Q x 0 0 0 8 @ @ 0 5 + e ( U 3   8   # r K y y K P ) p.p.` ) ( ( ) ",
"v.ZX:.* c h E _ T T E _ *.-.-.:.:.-.=.i.j.j.a.( e 3 5 x U ' ;.^ I q < 0 8 X X 0 q + = L _ U 0 O X @ y P H H U ( t.p.;.U ) _ Q _ ",
"m.wXA j W c k x T T E _ *.*.-.:.-.5.7.5.s.j.j.h.) y 5 5 r E _ _ I q - > > X X 0 5 7 : . 5 U ] P e @ 3 J K U ) e.t.r.~ K Q ! Q ! ",
"m.c.* * l c c V E T E _ *.*.*.:.-.5.s.s.i.h.j.j.g.) K r 0 w E ! I q - # # X X #   z L :   # P ' P 3 + H ] ) e.r.r.` U U Q Q E *.",
"z.n p l l c c V E T E ^ *.#.*.:.:.-.7.d.h.h.h.j.N.a.` U q < c I T k - # @ X     + U s.d.Q # 8 [ ] 0 e ] e.` e.t.r.) ( _ ( T ! :."
};
